<svg xmlns="http://www.w3.org/2000/svg" width="90" height="90"><g data-name="Component 24 – 2"><g data-name="Path 22432" fill="none"><path d="M45 90c-14.166 0-23.142-10.5-31.586-20.977C7.386 61.548 0 55.687 0 45A45 45 0 0145 0c11.631 0 19.185 5.354 25.951 14.846C76.32 24.8 90 31.778 90 45a45 45 0 01-45 45z"/><path d="M45 88a42.729 42.729 0 0016.737-3.378 42.859 42.859 0 0013.669-9.216 42.859 42.859 0 009.216-13.67A42.729 42.729 0 0088 45c0-3.433-1-6.6-3.146-9.966-1.966-3.085-4.675-5.953-7.294-8.728-3.066-3.247-6.236-6.605-8.308-10.397-3.443-4.812-6.777-8.097-10.485-10.333C54.776 3.17 50.272 2 45 2a42.729 42.729 0 00-16.737 3.378 42.86 42.86 0 00-13.669 9.216 42.86 42.86 0 00-9.216 13.67A42.729 42.729 0 002 45c0 3.564.879 6.743 2.766 10.003 1.733 2.995 4.086 5.675 6.576 8.512 1.2 1.366 2.44 2.78 3.63 4.253 4.262 5.289 8.488 10.346 13.315 14.092 2.57 1.994 5.092 3.457 7.71 4.47C38.9 87.454 41.845 88 45 88m0 2c-14.166 0-23.142-10.501-31.586-20.977C7.386 61.548 0 55.687 0 45 0 20.147 20.147 0 45 0c11.631 0 19.185 5.354 25.95 14.846C76.32 24.802 90 31.778 90 45c0 24.853-20.147 45-45 45z" fill="#7ba530"/></g></g></svg>