<svg width="199" height="110" viewBox="0 0 199 110" fill="none" xmlns="http://www.w3.org/2000/svg">
<path d="M8.22075 25.5831C-3.38416 43.3785 -2.44112 66.7169 9.39885 84.1868C18.8274 98.0958 34.4245 107.282 51.0359 109.524C62.4345 111.038 74.0197 108.863 84.0834 103.321C89.2269 100.543 93.8543 96.9069 97.7645 92.5714C100.855 89.1011 105.594 83.2026 104.355 78.1604C102.187 81.168 100.168 84.4787 97.2813 86.8771C97.9237 85.503 98.5193 84.1047 99.2535 82.7725C98.2128 83.8272 97.243 84.9491 96.3504 86.1309C96.7484 85.4713 97.5276 84.2763 97.3993 83.4199C94.9579 85.7446 93.6786 91.0956 90.5798 92.5695C92.2065 90.1254 94.0663 87.5628 94.8876 84.712C94.2499 85.3679 93.5728 85.9847 92.8602 86.559C93.3415 85.5739 94.7921 84.1886 94.706 82.9983C91.948 86.0422 88.9307 88.463 85.9433 91.2458C87.4051 89.7168 89.4083 88.0143 90.076 85.9433C89.0665 86.5348 87.7685 87.5712 87.4538 87.7559C86.8854 88.0871 86.1212 88.2139 86.4162 88.3352L86.0276 88.4285C83.2406 90.1954 80.8132 92.6609 77.705 93.8578C74.9415 94.9222 71.9251 95.1526 69.1222 96.1191C63.4724 98.0669 58.1073 97.1452 52.2842 96.8738C40.5351 96.3318 61.2351 72.1136 29.5426 77.2966C15.7576 79.5504 8.9793 59.4163 11.1117 46.4187C12.9022 35.5041 20.2892 26.2604 28.7925 19.5185C31.5467 17.3347 35.5567 18.7722 39.4216 20.206C43.7238 21.8059 47.8453 23.4058 49.8437 20.0027C54.1515 12.6769 64.0005 9.77659 71.8211 10.0005C63.0107 7.43322 53.3658 6.36229 44.3372 8.32131C54.0373 4.88276 64.3105 5.78205 73.8945 9.06201C79.0651 10.8006 83.9174 13.3656 88.2611 16.6565C90.3143 18.2402 92.238 19.9839 94.0139 21.8712C95.2772 23.2089 97.1811 26.807 98.7488 27.6195C97.3909 26.6363 96.2034 24.1455 95.0909 22.8517C93.5904 21.1064 91.9675 19.4694 90.2343 17.9532C86.3178 14.5546 81.9036 11.7712 77.1441 9.69916C69.9978 6.56286 61.9843 4.49749 54.1478 4.62529C32.3146 4.98258 12.1933 20.2042 3.89701 39.981C10.7493 16.2815 35.4771 -1.26204 60.322 1.67836C69.3228 2.79325 77.9531 5.92491 85.5649 10.8382C90.7816 14.2352 95.3577 18.5198 99.084 23.4963C99.4755 24.0159 103.766 29.9956 104.061 29.7213C104.529 29.2875 98.3283 21.4747 97.7495 20.7658C94.5544 16.8787 90.8325 13.4528 86.6906 10.5863C78.2412 4.74932 68.4316 1.16577 58.1972 0.177379C56.8268 0.0600351 55.452 0.00152124 54.0766 0.00199991C35.7337 0.00199991 18.1784 10.3195 8.2245 25.585" fill="#7BA530"/>
<path d="M48.9578 41.5229L47.0755 59.3985C46.9287 60.217 46.9813 61.0588 47.2291 61.8528C47.3434 62.0998 47.5328 62.3047 47.7704 62.4386C48.008 62.5725 48.2819 62.6286 48.5533 62.5991C48.8445 62.6163 49.1352 62.5563 49.3956 62.4252C49.656 62.2941 49.8768 62.0966 50.0357 61.8528C50.4392 61.0943 50.6689 60.256 50.7081 59.3985L52.5942 41.5191C53.6047 40.5863 59.1496 40.6105 60.0233 41.5191L57.1642 68.6133H49.9786L50.3279 65.3082H50.2455C49.7957 66.4709 48.9951 67.4661 47.9539 68.1568C46.9127 68.8475 45.6822 69.1996 44.4318 69.1647C43.6692 69.1707 42.9091 69.0766 42.1711 68.8848C41.4962 68.7057 40.8945 68.3204 40.4508 67.7831C39.9364 67.1248 39.5929 66.3504 39.4506 65.5283C39.2413 64.3458 39.2154 63.1383 39.3738 61.948L41.5278 41.5182C42.4642 40.8176 48.1506 40.6926 48.9559 41.5182" fill="#006A7F"/>
<path d="M120.834 41.5341L120.486 44.8401H120.569C121.812 42.1659 123.755 40.8304 126.398 40.8335C127.163 40.8246 127.925 40.9344 128.655 41.159C129.33 41.374 129.926 41.7838 130.367 42.3363C130.873 42.9993 131.215 43.7708 131.367 44.5892C131.579 45.7804 131.603 46.997 131.44 48.1957L129.287 68.6255H121.857L123.742 50.7471C123.888 49.9285 123.836 49.0868 123.588 48.2927C123.475 48.0449 123.286 47.8389 123.048 47.7041C122.811 47.5693 122.537 47.5125 122.265 47.5417C121.973 47.525 121.682 47.5857 121.422 47.7177C121.161 47.8496 120.941 48.048 120.782 48.2927C120.378 49.051 120.149 49.8894 120.111 50.7471L118.224 68.6255H110.792L113.651 41.5313C114.737 40.8307 119.908 40.7243 120.832 41.5313" fill="#006A7F"/>
<path d="M72.3685 48.2964C72.2548 48.0489 72.0659 47.8432 71.8284 47.7084C71.591 47.5737 71.317 47.5167 71.0452 47.5455C70.7534 47.5289 70.4624 47.5897 70.2018 47.7216C69.9413 47.8535 69.7204 48.0518 69.5619 48.2964C69.1585 49.055 68.9292 49.8933 68.8904 50.7508L67.0034 68.6311H59.5752L62.4333 41.5359C63.633 40.6422 68.8014 40.8288 69.6152 41.5359L69.2659 44.8411H69.3483C70.5932 42.1669 72.5364 40.8316 75.178 40.8353C76.4068 40.7355 77.6281 41.102 78.5971 41.8615C79.4308 42.7221 79.9854 43.8126 80.1891 44.9913C80.7476 43.6669 81.6941 42.541 82.9049 41.7607C83.9139 41.1603 85.0662 40.8407 86.2416 40.8353C87.0059 40.8262 87.7671 40.9357 88.4976 41.16C89.1725 41.3752 89.7682 41.7849 90.2095 42.3373C90.7156 42.9998 91.0585 43.7715 91.2106 44.5901C91.4213 45.781 91.446 46.9973 91.2836 48.1957L89.1297 68.6255H81.7015L83.5876 50.7452C83.7338 49.9266 83.6811 49.085 83.434 48.2908C83.32 48.0431 83.1307 47.8374 82.8929 47.7026C82.6551 47.5679 82.3809 47.5109 82.1089 47.5399C81.8172 47.5235 81.5264 47.5843 81.266 47.7162C81.0056 47.8481 80.7849 48.0464 80.6264 48.2908C80.223 49.0493 79.9936 49.8876 79.955 50.7452L78.0679 68.6255H70.6351L72.5221 50.7452C72.6686 49.9266 72.6159 49.085 72.3685 48.2908" fill="#006A7F"/>
<path d="M99.0185 60.1588C98.863 61.6277 98.9664 62.6041 99.3285 63.088C99.4725 63.3083 99.6689 63.4899 99.9002 63.6167C100.131 63.7434 100.391 63.8114 100.655 63.8147C100.991 63.8082 101.32 63.7148 101.609 63.5436C101.898 63.3723 102.137 63.1292 102.304 62.838C102.752 61.631 103.07 60.3802 103.254 59.1065C104.306 58.3173 108.873 58.2669 109.941 59.1065C109.941 59.1065 108.568 64.9574 107.038 66.6431C105.507 68.3288 103.207 69.1721 100.126 69.1721C98.6186 69.2204 97.1159 68.9738 95.7033 68.4464C94.5593 67.9769 93.6136 67.1275 93.0269 66.0424C92.3375 64.6794 91.954 63.1833 91.9031 61.6579C91.7887 59.4687 91.8617 57.2738 92.1213 55.097C92.326 52.8596 92.7392 50.646 93.3556 48.4849C93.7947 46.8962 94.5249 45.4021 95.5095 44.078C96.3437 42.9855 97.4514 42.1304 98.7216 41.5984C100.121 41.0546 101.615 40.7908 103.117 40.8223C104.424 40.7916 105.726 41.0134 106.949 41.4753C108.018 41.9111 108.92 42.6742 109.526 43.6545C110.242 44.8808 110.675 46.2504 110.794 47.6639C110.987 49.7232 110.955 51.7972 110.7 53.8498L110.409 56.6036H99.394L99.0185 60.1588ZM104.022 47.3374C103.925 47.0194 103.72 46.7452 103.441 46.5622C103.163 46.3792 102.829 46.299 102.498 46.3355C102.148 46.3195 101.801 46.4058 101.5 46.5839C101.198 46.7619 100.956 47.0239 100.802 47.3374C100.358 48.3344 100.099 49.4033 100.036 50.4924L99.9091 51.6939H103.994L104.121 50.4924C104.292 49.4441 104.258 48.3729 104.021 47.3374" fill="#006A7F"/>
<path d="M136.245 41.9287L137.087 33.9648C138.403 33.114 143.371 33.2595 144.517 33.9648L143.674 41.9287H146.603L145.965 47.9923H143.035L141.672 60.9125C141.549 61.4688 141.643 62.0507 141.933 62.5413C142.097 62.7133 142.299 62.8455 142.523 62.9278C142.746 63.0102 142.986 63.0404 143.223 63.0161H144.379L143.745 69.0257C143.058 69.0257 142.366 69.0508 141.673 69.1012C140.981 69.1516 140.317 69.1768 139.684 69.1768C138.725 69.1875 137.765 69.1289 136.814 69.0014C136.111 68.9248 135.453 68.6161 134.946 68.1245C134.434 67.5437 134.12 66.8159 134.05 66.0461C133.913 64.839 133.924 63.6198 134.082 62.4154L135.605 47.9923H133.128L133.768 41.9287H136.245Z" fill="#006A7F"/>
<path d="M156.83 41.5229L154.943 59.4022C154.797 60.2208 154.849 61.0625 155.097 61.8566C155.211 62.1035 155.401 62.3084 155.638 62.4423C155.876 62.5762 156.15 62.6324 156.421 62.6029C156.713 62.6202 157.003 62.5603 157.264 62.4292C157.524 62.2981 157.745 62.1005 157.904 61.8566C158.307 61.0981 158.537 60.2598 158.576 59.4022L160.462 41.5229C161.474 40.59 167.018 40.6142 167.891 41.5229L165.033 68.6171H157.85L158.2 65.3119H158.117C157.667 66.4746 156.867 67.4697 155.826 68.1604C154.784 68.851 153.554 69.2032 152.304 69.1684C151.541 69.1744 150.781 69.0803 150.043 68.8885C149.368 68.7093 148.766 68.324 148.323 67.7868C147.808 67.1284 147.465 66.354 147.322 65.5321C147.113 64.3496 147.087 63.142 147.246 61.9517L149.4 41.5219C150.337 40.8213 156.024 40.6963 156.829 41.5219" fill="#006A7F"/>
<path d="M179.987 48.2964C179.873 48.0488 179.684 47.843 179.447 47.7083C179.209 47.5735 178.935 47.5165 178.663 47.5455C178.372 47.5288 178.08 47.5895 177.82 47.7214C177.559 47.8534 177.339 48.0518 177.18 48.2964C176.776 49.0548 176.547 49.8932 176.509 50.7508L174.622 68.6311H167.192L170.051 41.5359C171.015 40.5574 176.607 40.7299 177.232 41.5359L176.883 44.8411H176.966C178.211 42.1669 180.155 40.8316 182.796 40.8353C184.025 40.7355 185.247 41.1021 186.216 41.8615C187.049 42.7224 187.604 43.8127 187.808 44.9913C188.367 43.6669 189.313 42.5411 190.524 41.7608C191.533 41.1602 192.685 40.8406 193.861 40.8353C194.625 40.8262 195.386 40.9357 196.117 41.16C196.792 41.375 197.387 41.7847 197.829 42.3373C198.335 42.9997 198.678 43.7714 198.83 44.5901C199.041 45.781 199.065 46.9973 198.903 48.1957L196.749 68.6255H189.315L191.202 50.7452C191.348 49.9266 191.296 49.085 191.048 48.2908C190.934 48.043 190.745 47.8372 190.507 47.7025C190.27 47.5677 189.995 47.5108 189.723 47.5399C189.432 47.5236 189.141 47.5844 188.88 47.7163C188.62 47.8482 188.399 48.0464 188.241 48.2908C187.837 49.0493 187.608 49.8876 187.569 50.7452L185.682 68.6255H178.253L180.14 50.7452C180.286 49.9266 180.233 49.0851 179.987 48.2908" fill="#006A7F"/>
<path d="M29.2626 32.9657L28.0311 44.6349H28.1145C28.6965 43.4142 29.6306 42.394 30.7975 41.7048C31.6766 41.2205 32.6599 40.9546 33.6641 40.9296C34.4023 40.9242 35.1361 41.0425 35.8349 41.2794C36.5114 41.5138 37.1099 41.9296 37.5646 42.4809C38.0876 43.1477 38.4439 43.9289 38.604 44.7599C38.8281 45.9238 38.8626 47.116 38.7061 48.2908L36.5522 68.7206H29.1231L31.0092 50.8422C31.1555 50.0236 31.1025 49.1819 30.8546 48.3878C30.7414 48.1399 30.5526 47.9339 30.315 47.7991C30.0774 47.6643 29.8032 47.6075 29.5314 47.6369C29.2397 47.62 28.9487 47.6806 28.6882 47.8126C28.4277 47.9445 28.2071 48.1431 28.0489 48.3878C27.6451 49.1463 27.4155 49.9846 27.3765 50.8422L25.4905 68.7215H18.0613L21.8344 32.9638C23.0856 32.0095 28.1154 32.0095 29.2626 32.9638" fill="#006A7F"/>
</svg>
